<svg width="247" height="45" viewBox="0 0 247 45" version="1.1" xmlns="http://www.w3.org/2000/svg" xmlns:xlink="http://www.w3.org/1999/xlink">
<title>Arbetsliv logo</title>
<desc>Created using Figma</desc>
<g id="Canvas" transform="translate(-33051 -1831)">
<g id="Arbetsliv logo">
<g id="Group">
<g id="Group">
<g id="Group">
<g id="Group">
<g id="Group">
<g id="Group">
<g id="Vector">
<use xlink:href="#path0_fill" transform="translate(33051 1834)" fill="#ADB4C5"/>
</g>
</g>
</g>
</g>
</g>
</g>
<g id="Group">
<g id="Group">
<g id="Vector">
<use xlink:href="#path1_fill" transform="translate(33249.2 1831)" fill="#ADB4C5"/>
</g>
</g>
</g>
<g id="Vector">
<use xlink:href="#path2_fill" transform="translate(33246 1844.6)" fill="#ADB4C5"/>
</g>
<g id="Vector">
<use xlink:href="#path3_fill" transform="translate(33227.7 1832.5)" fill="#ADB4C5"/>
</g>
<g id="Vector">
<use xlink:href="#path4_fill" transform="translate(33204.5 1844.6)" fill="#ADB4C5"/>
</g>
<g id="Vector">
<use xlink:href="#path5_fill" transform="translate(33183.4 1837.9)" fill="#ADB4C5"/>
</g>
<g id="Vector">
<use xlink:href="#path6_fill" transform="translate(33154.2 1844.5)" fill="#ADB4C5"/>
</g>
<g id="Vector">
<use xlink:href="#path7_fill" transform="translate(33117.9 1832.4)" fill="#ADB4C5"/>
</g>
</g>
</g>
</g>
<defs>
<path id="path0_fill" d="M 61.9 41.3L 61.9 39.7C 61.9 39.7 59.5 39.5 57.1 39.3C 55.7 39.2 55.9 37.5 55.9 37.5C 55.9 37.5 55.9 26.3 55.9 25.5C 55.9 24.8 55.6 19.4 58.6 18.4C 61.2 17.5 61.6 19.7 64.4 19.6C 67.5 19.5 68.6 16.9 68.6 15.1C 68.6 13.4 67.5 10.6 64.2 10.5C 58.2 10.3 56 18.9 56 18.9L 55.9 18.9C 55.9 15.9 55.9 12.4 56.3 10.9L 55.9 10.5L 42.6 12.5L 42.6 14.1L 44.6 14.1C 46.2 14 46.2 14.8 46.2 15.5C 46.2 16.1 46.2 35.8 46.2 36.6C 46.2 37.4 46.3 38.6 45.8 39C 45 39.6 43 39.7 43 39.7C 43 39.7 41.7 39.8 40.7 39.3C 39.9 38.9 39.2 38.3 38.7 37.3L 24.6 0L 17 0L 6.9 35.3C 6.5 36.7 5.4 37.7 4 38.2L -1.52588e-06 39.7L -1.52588e-06 41.3L 15.1 41.3L 15.1 39.7L 10.7 38C 9.4 37.5 8.60001 36.7 9.00001 35.4L 11.5 26.9L 22.9 26.9L 26.6 37C 26.9 37.8 27.2 39 25.6 39.3L 23 39.7L 23 41.3L 61.9 41.3ZM 12 24.9L 16.6 8.89999L 16.7 8.89999L 22.3 24.9L 12 24.9ZM 42.5 12.5L 42.5 14.1L 42.5 12.5Z"/>
<path id="path1_fill" d="M 29.8982 14.2L 29.8982 15.8C 29.8982 15.8 28.9982 15.8 28.3982 16C 27.1982 16.5 27.0982 17.6 27.3982 18.4L 34.7982 36.1L 34.8982 36.1L 40.4982 19.6C 40.8982 18.4 40.0982 17.3 38.7982 16.8L 35.6982 15.6L 35.6982 14L 48.6982 14L 48.6982 15.6L 45.2982 16.8C 44.0982 17.2 42.6982 18.7 42.2982 19.9L 33.8982 44.5L 27.6982 44.5L 16.4982 18C 16.0982 17.1 15.6982 16.4 14.7982 16.1L 13.2982 15.7L 13.2982 14.1C 13.2982 14.1 17.1982 13 19.3982 11C 21.1982 9.3 21.1982 3.9 16.2982 2.7C 13.8982 2.2 10.4982 2.30001 9.79821 5.10001C 9.09821 7.90001 9.8982 11.6 4.79821 11.5C -0.501795 11.4 -0.301794 6.3 0.298206 4.7C 1.09821 2.6 3.69819 0 9.99819 0C 16.8982 0 20.7982 2.2 22.0982 5C 23.7982 8.7 21.3982 10.9 21.8982 12.4C 22.3982 13.8 23.5982 13.9 24.2982 13.9C 24.8982 14.2 29.8982 14.2 29.8982 14.2Z"/>
<path id="path2_fill" d="M 13.3 5.79999C 13.3 3.49999 13.5 1.6 13.7 0.4L 13.3 6.10352e-06L 6.10352e-06 2.00001L 6.10352e-06 3.6L 2.4 3.6C 3.2 3.6 3.60001 3.89999 3.60001 4.79999L 3.60001 27.2C 3.60001 28.1 3.2 28.5 2.4 28.7L 6.10352e-06 29.1L 6.10352e-06 30.7L 16.9 30.7L 16.9 29.1L 14.5 28.7C 13.7 28.5 13.3 28.1 13.3 27.2L 13.3 5.79999Z"/>
<path id="path3_fill" d="M 13.3 5.8C 13.3 3.5 13.5 1.59999 13.7 0.399994L 13.3 0L -1.2207e-05 2L -1.2207e-05 3.60001L 2.40001 3.60001C 3.20001 3.60001 3.59999 3.9 3.59999 4.8L 3.59999 39.3C 3.59999 40.2 3.20001 40.6 2.40001 40.8L -1.2207e-05 41.2L -1.2207e-05 42.8L 16.9 42.8L 16.9 41.2L 14.5 40.8C 13.7 40.6 13.3 40.2 13.3 39.3L 13.3 5.8Z"/>
<path id="path4_fill" d="M 21.2 9.6L 20.9 1.2C 16.2 0.300003 14.2 6.10352e-06 11.5 6.10352e-06C 3.70001 6.10352e-06 6.10352e-06 4.20001 6.10352e-06 9.00001C 6.10352e-06 13.8 2.40001 16.4 8.10001 19C 13 21.3 14.3 23 14.3 25.5C 14.3 28.1 12.7 29.6 10.2 29.6C 5.99999 29.6 4.09999 26.5 1.79999 21.8L 0.199988 21.8L 1.00001 30.2C 5.50001 31.1 8.39999 31.4 11.3 31.4C 18.2 31.4 23 27.5 23 21.7C 23 16.3 20.3 13.9 12.8 10.5C 10.6 9.50001 8.19999 8.50001 8.19999 5.50001C 8.19999 3.40001 9.49999 1.79999 12.2 1.79999C 16.1 1.79999 17.4 5.1 19.6 9.6L 21.2 9.6Z"/>
<path id="path5_fill" d="M 0 7.8L 0 9.1L 3.60001 9.1L 3.60001 31.4C 3.60001 36.5 6.30001 38.1 11.1 38.1C 14.6 38.1 18 37.2 20.5 36L 20.3 34.3C 19.1 34.8 18 35.1 16.9 35.1C 14.9 35.1 13.3 34.5 13.3 30.5L 13.3 9.1L 18.7 9.1L 18.7 7.20001L 13.3 7.20001L 13.3 -6.10352e-06L 11.8 -6.10352e-06L 6.70001 5.70001C 5.70001 6.70001 4.69999 7.39999 3.39999 7.49999L 0 7.8Z"/>
<path id="path6_fill" d="M 10.2 12.4C 10.5 6.69999 12.3 1.8 16.2 1.8C 19 1.8 20.5 4.09999 20.5 8.39999C 20.5 9.49999 20.4 10.9 20.1 12.4L 10.2 12.4ZM 10.2 14L 28.6 14C 28.8 12.9 28.9 11.8 28.9 10.9C 28.9 2.49999 22.2 0 16.3 0C 8.80001 0 3.05176e-06 5.1 3.05176e-06 16C 3.05176e-06 26.3 7.2 31.4 15.7 31.4C 21.9 31.4 26.4 27.8 28.3 24.6L 27.5 23.6C 25.2 25.6 22.7 26.6 19.8 26.6C 13.6 26.6 10.3 21.8 10.2 15.1L 10.2 14Z"/>
<path id="path7_fill" d="M 13.2 25C 13.2 18 16.8 17 18.3 17C 21.7 17 24.1 19.4 24.1 27.9C 24.1 37.5 21.1 39.8 17.4 39.8C 15.9 39.8 14.1 39.5 13.2 39.1L 13.2 25ZM 3.5 43.5L 4.89999 43.5L 13.2 40.8L 13.3 40.8C 15.9 42.8 18.5 43.5 21 43.5C 28.8 43.5 34.3 36.8 34.3 27.8C 34.3 17.9 29.7 12.1 22.1 12.1C 18.8 12.1 14.9 14.1 13.4 18.9L 13.3 18.9L 13.3 5.4C 13.3 3.6 13.4 1.5 13.7 0.400003L 13.3 -6.10352e-06L -2.84217e-14 1.99999L -2.84217e-14 3.6L 2.39999 3.6C 3.19999 3.6 3.60001 3.9 3.60001 4.8L 3.60001 43.5L 3.5 43.5Z"/>
</defs>
</svg>
