<?xml version="1.0" encoding="utf-8"?>
<!-- Generator: Adobe Illustrator 17.1.0, SVG Export Plug-In . SVG Version: 6.00 Build 0)  -->
<!DOCTYPE svg PUBLIC "-//W3C//DTD SVG 1.1//EN" "http://www.w3.org/Graphics/SVG/1.1/DTD/svg11.dtd">
<svg version="1.1" id="Lager_1" xmlns="http://www.w3.org/2000/svg" xmlns:xlink="http://www.w3.org/1999/xlink" x="0px" y="0px"
	 viewBox="120.1 156.1 247.1 44.8" enable-background="new 120.1 156.1 247.1 44.8" xml:space="preserve">
<g>
	<g>
		<polygon fill="none" points="136.7,168 132.1,183.9 142.4,183.9 136.8,168 		"/>
		<g>
			<polygon fill="none" points="136.7,168 132.1,183.9 142.4,183.9 136.8,168 			"/>
			<g>
				<polygon fill="none" points="136.7,168 132.1,183.9 142.4,183.9 136.8,168 				"/>
				<g>
					<polygon fill="none" points="136.7,168 132.1,183.9 142.4,183.9 136.8,168 					"/>
					<g>
						<polygon fill="none" points="136.7,168 132.1,183.9 142.4,183.9 136.8,168 						"/>
						<path d="M182,200.3v-1.6c0,0-2.4-0.2-4.8-0.4c-1.4-0.1-1.2-1.8-1.2-1.8s0-11.2,0-12c0-0.7-0.3-6.1,2.7-7.1
							c2.6-0.9,3,1.3,5.8,1.2c3.1-0.1,4.2-2.7,4.2-4.5c0-1.7-1.1-4.5-4.4-4.6c-6-0.2-8.2,8.4-8.2,8.4h-0.1c0-3,0-6.5,0.4-8l-0.4-0.4
							l-13.3,2v1.6h2c1.6-0.1,1.6,0.7,1.6,1.4c0,0.6,0,20.3,0,21.1c0,0.8,0.1,2-0.4,2.4c-0.8,0.6-2.8,0.7-2.8,0.7s-1.3,0.1-2.3-0.4
							c-0.8-0.4-1.5-1-2-2L144.7,159h-7.6L127,194.3c-0.4,1.4-1.5,2.4-2.9,2.9l-4,1.5v1.6h15.1v-1.6l-4.4-1.7
							c-1.3-0.5-2.1-1.3-1.7-2.6l2.5-8.5H143l3.7,10.1c0.3,0.8,0.6,2-1,2.3l-2.6,0.4v1.6L182,200.3z M132.1,183.9l4.6-16h0.1l5.6,16
							H132.1z M162.6,171.5v1.6"/>
					</g>
				</g>
			</g>
		</g>
	</g>
	<g>
		<path d="M331.5,170.2L331.5,170.2L331.5,170.2z"/>
		<g>
			<path d="M348.2,170.2v1.6c0,0-0.9,0-1.5,0.2c-1.2,0.5-1.3,1.6-1,2.4l7.4,17.7h0.1l5.6-16.5c0.4-1.2-0.4-2.3-1.7-2.8l-3.1-1.2
				v-1.6h13v1.6l-3.4,1.2c-1.2,0.4-2.6,1.9-3,3.1l-8.4,24.6h-6.2L334.8,174c-0.4-0.9-0.8-1.6-1.7-1.9l-1.5-0.4v-1.6
				c0,0,3.9-1.1,6.1-3.1c1.8-1.7,1.8-7.1-3.1-8.3c-2.4-0.5-5.8-0.4-6.5,2.4c-0.7,2.8,0.1,6.5-5,6.4c-5.3-0.1-5.1-5.2-4.5-6.8
				c0.8-2.1,3.4-4.7,9.7-4.7c6.9,0,10.8,2.2,12.1,5c1.7,3.7-0.7,5.9-0.2,7.4c0.5,1.4,1.7,1.5,2.4,1.5
				C343.2,170.2,348.2,170.2,348.2,170.2z"/>
		</g>
	</g>
	<path d="M328.4,175.4c0-2.3,0.2-4.2,0.4-5.4l-0.4-0.4l-13.3,2v1.6h2.4c0.8,0,1.2,0.3,1.2,1.2v22.4c0,0.9-0.4,1.3-1.2,1.5l-2.4,0.4
		v1.6H332v-1.6l-2.4-0.4c-0.8-0.2-1.2-0.6-1.2-1.5V175.4z"/>
	<path d="M310.1,163.3c0-2.3,0.2-4.2,0.4-5.4l-0.4-0.4l-13.3,2v1.6h2.4c0.8,0,1.2,0.3,1.2,1.2v34.5c0,0.9-0.4,1.3-1.2,1.5l-2.4,0.4
		v1.6h16.9v-1.6l-2.4-0.4c-0.8-0.2-1.2-0.6-1.2-1.5V163.3z"/>
	<path d="M294.8,179.2l-0.3-8.4c-4.7-0.9-6.7-1.2-9.4-1.2c-7.8,0-11.5,4.2-11.5,9s2.4,7.4,8.1,10c4.9,2.3,6.2,4,6.2,6.5
		c0,2.6-1.6,4.1-4.1,4.1c-4.2,0-6.1-3.1-8.4-7.8h-1.6l0.8,8.4c4.5,0.9,7.4,1.2,10.3,1.2c6.9,0,11.7-3.9,11.7-9.7
		c0-5.4-2.7-7.8-10.2-11.2c-2.2-1-4.6-2-4.6-5c0-2.1,1.3-3.7,4-3.7c3.9,0,5.2,3.3,7.4,7.8L294.8,179.2L294.8,179.2z"/>
	<path d="M252.5,170.7v1.3h3.6v22.3c0,5.1,2.7,6.7,7.5,6.7c3.5,0,6.9-0.9,9.4-2.1l-0.2-1.7c-1.2,0.5-2.3,0.8-3.4,0.8
		c-2,0-3.6-0.6-3.6-4.6V172h5.4v-1.9h-5.4v-7.2h-1.5l-5.1,5.7c-1,1-2,1.7-3.3,1.8L252.5,170.7z"/>
	<path d="M233.5,181.9c0.3-5.7,2.1-10.6,6-10.6c2.8,0,4.3,2.3,4.3,6.6c0,1.1-0.1,2.5-0.4,4L233.5,181.9L233.5,181.9z M233.5,183.5
		h18.4c0.2-1.1,0.3-2.2,0.3-3.1c0-8.4-6.7-10.9-12.6-10.9c-7.5,0-16.3,5.1-16.3,16c0,10.3,7.2,15.4,15.7,15.4
		c6.2,0,10.7-3.6,12.6-6.8l-0.8-1c-2.3,2-4.8,3-7.7,3c-6.2,0-9.5-4.8-9.6-11.5V183.5z"/>
	<path d="M200.2,182.4c0-7,3.6-8,5.1-8c3.4,0,5.8,2.4,5.8,10.9c0,9.6-3,11.9-6.7,11.9c-1.5,0-3.3-0.3-4.2-0.7V182.4z M190.5,200.9
		h1.4l8.3-2.7h0.1c2.6,2,5.2,2.7,7.7,2.7c7.8,0,13.3-6.7,13.3-15.7c0-9.9-4.6-15.7-12.2-15.7c-3.3,0-7.2,2-8.7,6.8h-0.1v-13.5
		c0-1.8,0.1-3.9,0.4-5l-0.4-0.4l-13.3,2v1.6h2.4c0.8,0,1.2,0.3,1.2,1.2V200.9z"/>
</g>
</svg>
