<svg width="31" height="33" viewBox="0 0 31 33" version="1.1" xmlns="http://www.w3.org/2000/svg" xmlns:xlink="http://www.w3.org/1999/xlink">
<title>loginb</title>
<desc>Created using Figma</desc>
<g id="Canvas" transform="translate(-13700 -1022)">
<g id="loginb">
<g id="Group">
<g id="Vector">
<use xlink:href="#path0_fill" transform="translate(13700 1022)" fill="#35B084"/>
</g>
</g>
</g>
</g>
<defs>
<path id="path0_fill" d="M 15.122 -1.06567e-05C 10.7508 -1.06567e-05 7.18293 3.53909 7.18293 7.87498C 7.18293 12.2109 10.7508 15.75 15.122 15.75C 19.4931 15.75 23.061 12.2109 23.061 7.87498C 23.061 3.53909 19.4931 -1.06567e-05 15.122 -1.06567e-05ZM 15.122 2.24999C 18.2673 2.24999 20.7927 4.75506 20.7927 7.87498C 20.7927 10.9949 18.2673 13.5 15.122 13.5C 11.9766 13.5 9.45122 10.9949 9.45122 7.87498C 9.45122 4.75506 11.9766 2.24999 15.122 2.24999ZM 15.5 16.5C 6.93262 16.5 0 23.3767 0 31.875L 0 33L 2.26829 33L 2.26829 31.875C 2.26829 24.5843 8.15001 18.75 15.5 18.75C 22.85 18.75 28.7317 24.5843 28.7317 31.875L 28.7317 33L 31 33L 31 31.875C 31 23.3767 24.0674 16.5 15.5 16.5L 15.5 16.5Z"/>
</defs>
</svg>
