<svg width="230" height="56" viewBox="0 0 230 56" version="1.1" xmlns="http://www.w3.org/2000/svg" xmlns:xlink="http://www.w3.org/1999/xlink">
<title>peopl logo final</title>
<desc>Created using Figma</desc>
<g id="Canvas" transform="translate(-33012 -1022)">
<g id="peopl logo final">
<g id="Emblem">
<g id="Part 2">
<use xlink:href="#path0_fill" transform="translate(33033 1043.18)" fill="url(#paint0_linear)"/>
</g>
<g id="Shadow" opacity="0.1">
<use xlink:href="#path1_fill" transform="translate(33033 1043.18)"/>
</g>
<g id="Part 1">
<use xlink:href="#path2_fill" transform="translate(33012 1022)" fill="url(#paint2_linear)"/>
</g>
</g>
<g id="Text">
<g id="XMLID 3">
<use xlink:href="#path3_fill" transform="translate(33087.5 1036.58)" fill="#646B75"/>
</g>
<g id="XMLID 7">
<use xlink:href="#path4_fill" transform="translate(33120.1 1036.67)" fill="#646B75"/>
</g>
<g id="XMLID 11">
<use xlink:href="#path5_fill" transform="translate(33153.1 1036.58)" fill="#646B75"/>
</g>
<g id="XMLID 14">
<use xlink:href="#path6_fill" transform="translate(33187.5 1036.58)" fill="#646B75"/>
</g>
<g id="XMLID 18">
<use xlink:href="#path7_fill" transform="translate(33221.8 1025.96)" fill="#646B75"/>
</g>
<g id="XMLID 20">
<use xlink:href="#path8_fill" transform="translate(33234.1 1055.75)" fill="#646B75"/>
</g>
</g>
</g>
</g>
<defs>
<linearGradient id="paint0_linear" x1="0" y1="0" x2="1" y2="0" gradientUnits="userSpaceOnUse" gradientTransform="matrix(15.2941 15.413 -15.2942 15.413 14.4124 -0.888128)">
<stop offset="0.287293" stop-color="#FB8883"/>
<stop offset="1" stop-color="#FED98F"/>
</linearGradient>
<linearGradient id="paint2_linear" x1="0" y1="0" x2="1" y2="0" gradientUnits="userSpaceOnUse" gradientTransform="matrix(20.0742 20.2302 -20.0741 20.2302 22.5321 2.47476)">
<stop offset="0" stop-color="#709FF6"/>
<stop offset="0.729282" stop-color="#7ADBB9"/>
</linearGradient>
<path id="path0_fill" d="M 27.7841 4.23016e-07L 13.5344 4.23016e-07L 13.5344 6.81981C 13.5344 10.4792 10.5084 13.6396 6.76721 13.6396L -8.39507e-07 13.6396L -8.39507e-07 28C -8.39507e-07 31.7703 3.02599 34.8198 6.76721 34.8198C 10.5084 34.8198 13.5344 31.7703 13.5344 28L 13.5344 14.9149C 13.5344 14.1941 14.0846 13.6396 14.7998 13.6396L 27.7841 13.6396C 31.5253 13.6396 34.5513 10.5901 34.5513 6.81981C 34.5513 3.04951 31.5253 4.23016e-07 27.7841 4.23016e-07Z"/>
<path id="path1_fill" d="M 14.1946 4.23016e-07C 10.3984 4.23016e-07 6.65717 4.23016e-07 2.64086 4.23016e-07L 1.15538 4.23016e-07C 0.27509 4.23016e-07 0.77025 4.23016e-07 -8.39507e-07 4.23016e-07L -8.39507e-07 5.6C -8.39507e-07 3.10495 -8.39507e-07 4.82377 -8.39507e-07 8.7604C -8.39507e-07 12.697 -8.39507e-07 13.5287 -8.39507e-07 15.4693L 8.25269 15.4693C 12.159 15.4693 15.35 12.2535 15.35 8.31684L 15.35 4.23016e-07C 10.7285 4.23016e-07 18.1009 4.23016e-07 14.1946 4.23016e-07Z"/>
<path id="path2_fill" d="M 27.7841 0C 24.1529 0 21.1269 2.99406 21.0169 6.65347L 21.0169 19.905C 21.0169 20.6258 20.4667 21.1802 19.7514 21.1802L 6.76721 21.1802C 3.02599 21.1802 5.24692e-08 24.2297 5.24692e-08 28C 5.24692e-08 31.7703 3.02599 34.8198 6.76721 34.8198L 27.7841 34.8198C 31.5253 34.8198 34.5513 31.7703 34.5513 28L 34.5513 6.81981C 34.5513 3.04951 31.5253 0 27.7841 0Z"/>
<path id="path3_fill" d="M 0 33.8436L 0 13.4684C 0 13.4684 0 13.4684 0 13.382L 0 2.84908C 0 1.29504 1.28839 1.31738e-06 2.83446 1.31738e-06C 4.29463 1.31738e-06 5.58302 1.03603 5.7548 2.15839C 7.73033 0.863358 10.3071 1.31738e-06 12.9698 1.31738e-06C 20.013 1.31738e-06 25.8537 6.0435 25.8537 13.382C 25.8537 20.7206 20.0989 26.5914 12.9698 26.5914C 10.3071 26.5914 7.73034 25.8144 5.8407 24.433L 5.8407 33.8436C 5.8407 35.3113 4.55231 36.6926 2.83446 36.6926C 1.28839 36.779 0 35.3113 0 33.8436ZM 5.8407 13.382C 5.8407 15.4541 6.52784 17.5261 7.90212 18.7348C 9.19051 20.2025 10.9943 20.9796 12.9698 20.9796C 14.7735 20.9796 16.5773 20.2025 17.9516 18.7348C 19.1541 17.5261 20.013 15.4541 20.013 13.382C 20.013 11.31 19.1541 9.41059 17.9516 8.02921C 16.5773 6.56151 14.7735 5.87082 12.9698 5.87082C 10.9943 5.87082 9.2764 6.64784 7.90212 8.02921C 6.52784 9.41059 5.8407 11.31 5.8407 13.382Z"/>
<path id="path4_fill" d="M 0 13.2957C 0.0858926 6.0435 5.66892 0 12.9698 0C 19.8412 0 25.3383 5.18014 25.7678 12.346C 25.7678 12.4323 25.7678 12.5187 25.7678 12.605C 25.7678 12.6913 25.7678 12.9503 25.6819 13.123C 25.5101 14.418 24.3935 15.2814 22.9333 15.2814L 6.01248 15.2814C 6.27016 16.4901 6.87142 17.8715 7.81623 18.8212C 8.93284 20.1162 11.0801 21.0659 12.8839 21.2386C 14.7735 21.4112 17.0926 20.8932 18.381 19.9435C 19.4976 18.7348 21.6449 18.9075 22.3321 19.7709C 23.0192 20.5479 23.5346 22.1019 22.3321 23.2243C 19.7553 25.6417 16.5773 26.764 12.798 26.764C 5.66891 26.5914 0.0858926 20.5479 0 13.2957ZM 5.7548 10.7056L 20.786 10.7056C 20.2707 8.54723 17.5221 5.43914 12.9698 5.00747C 8.41748 5.26647 6.18427 8.46089 5.7548 10.7056Z"/>
<path id="path5_fill" d="M 3.69338 22.7926C 1.37428 20.4615 -5.24247e-06 17.0945 -5.24247e-06 13.382C -5.24247e-06 9.75593 1.37428 6.64784 3.69338 4.05777C 6.09837 1.55404 9.19051 1.31738e-06 12.798 1.31738e-06C 16.3196 1.31738e-06 19.4976 1.55404 21.6449 4.05777C 24.0499 6.64784 25.3383 9.75593 25.3383 13.382C 25.3383 17.0945 24.0499 20.4615 21.6449 22.7926C 19.4976 25.2963 16.3196 26.8504 12.798 26.8504C 9.10462 26.8504 6.01248 25.2963 3.69338 22.7926ZM 5.75481 13.382C 5.75481 15.7131 6.44195 17.5261 7.64445 19.0802C 8.93284 20.3752 10.7366 21.0659 12.7121 21.0659C 14.6017 21.0659 16.2337 20.3752 17.608 19.0802C 18.8964 17.6125 19.6694 15.7131 19.6694 13.382C 19.6694 11.2236 18.8964 9.23791 17.608 7.85654C 16.3196 6.64784 14.6017 5.87082 12.7121 5.87082C 10.7366 5.87082 8.93284 6.73418 7.64445 7.85654C 6.44195 9.32425 5.75481 11.2236 5.75481 13.382Z"/>
<path id="path6_fill" d="M -5.24247e-06 33.8436L -5.24247e-06 13.4684C -5.24247e-06 13.4684 -5.24247e-06 13.4684 -5.24247e-06 13.382L -5.24247e-06 2.84908C -5.24247e-06 1.29504 1.28839 1.31738e-06 2.83445 1.31738e-06C 4.29463 1.31738e-06 5.58303 1.03603 5.75481 2.15839C 7.73034 0.863358 10.3071 1.31738e-06 12.9698 1.31738e-06C 20.013 1.31738e-06 25.8537 6.0435 25.8537 13.382C 25.8537 20.7206 20.0989 26.5914 12.9698 26.5914C 10.3071 26.5914 7.73033 25.8144 5.8407 24.433L 5.8407 33.8436C 5.8407 35.3113 4.55231 36.6926 2.83445 36.6926C 1.28839 36.779 -5.24247e-06 35.3113 -5.24247e-06 33.8436ZM 5.8407 13.382C 5.8407 15.4541 6.52785 17.5261 7.90213 18.7348C 9.19052 20.2025 10.9943 20.9796 12.9698 20.9796C 14.7735 20.9796 16.5773 20.2025 17.9515 18.7348C 19.154 17.5261 20.013 15.4541 20.013 13.382C 20.013 11.31 19.154 9.41059 17.9515 8.02921C 16.5773 6.56151 14.7735 5.87082 12.9698 5.87082C 10.9943 5.87082 9.27641 6.64784 7.90213 8.02921C 6.52785 9.41059 5.8407 11.31 5.8407 13.382Z"/>
<path id="path7_fill" d="M 2.92034 3.29344e-07C 4.5523 3.29344e-07 5.92658 1.29503 5.92658 2.93541L 5.92658 34.4479C 5.92658 36.0883 4.63819 37.3833 2.92034 37.3833C 1.28838 37.3833 -5.24247e-06 36.0883 -5.24247e-06 34.4479L -5.24247e-06 2.93541C -5.24247e-06 1.29503 1.37427 3.29344e-07 2.92034 3.29344e-07Z"/>
<path id="path8_fill" d="M 3.95105 -1.31738e-06C 6.09837 -1.31738e-06 7.90212 1.81305 7.90212 3.97144C 7.90212 6.12983 6.09837 7.94288 3.95105 7.94288C 1.80373 7.94288 1.04849e-05 6.21616 1.04849e-05 3.97144C 1.04849e-05 1.81305 1.71784 -1.31738e-06 3.95105 -1.31738e-06Z"/>
</defs>
</svg>
